<svg version="1.1" viewBox="0.0 0.0 960.0 720.0" fill="none" stroke="none" stroke-linecap="square" stroke-miterlimit="10" xmlns:xlink="http://www.w3.org/1999/xlink" xmlns="http://www.w3.org/2000/svg"><clipPath id="p.0"><path d="m0 0l960.0 0l0 720.0l-960.0 0l0 -720.0z" clip-rule="nonzero"/></clipPath><g clip-path="url(#p.0)"><path fill="#000000" fill-opacity="0.0" d="m0 0l960.0 0l0 720.0l-960.0 0z" fill-rule="evenodd"/><path fill="#000000" fill-opacity="0.0" d="m161.48491 305.7186l113.291336 0" fill-rule="evenodd"/><path stroke="#073763" stroke-width="4.0" stroke-linejoin="round" stroke-linecap="butt" stroke-dasharray="16.0,12.0" d="m161.48491 305.7186l113.291336 0" fill-rule="evenodd"/><path fill="#000000" fill-opacity="0.0" d="m163.05089 464.048l0 0c-28.351044 0.39971924 -54.74241 -14.423248 -69.154366 -38.841217c-14.411949 -24.417969 -14.634369 -54.68634 -0.5828018 -79.313446c14.051559 -24.627106 40.222244 -39.836304 68.576096 -39.85327l0.04724121 79.00787z" fill-rule="evenodd"/><path fill="#000000" fill-opacity="0.0" d="m163.05089 464.048l0 0c-28.351044 0.39971924 -54.74241 -14.423248 -69.154366 -38.841217c-14.411949 -24.417969 -14.634369 -54.68634 -0.5828018 -79.313446c14.051559 -24.627106 40.222244 -39.836304 68.576096 -39.85327" fill-rule="evenodd"/><path stroke="#073763" stroke-width="4.0" stroke-linejoin="round" stroke-linecap="butt" stroke-dasharray="16.0,12.0" d="m163.05089 464.048l0 0c-28.351044 0.39971924 -54.74241 -14.423248 -69.154366 -38.841217c-14.411949 -24.417969 -14.634369 -54.68634 -0.5828018 -79.313446c14.051559 -24.627106 40.222244 -39.836304 68.576096 -39.85327" fill-rule="evenodd"/><path fill="#000000" fill-opacity="0.0" d="m884.3803 219.47151l0 0l0 0c-0.008361816 21.898117 -8.715332 42.89644 -24.205566 58.375565c-15.490234 15.4791565 -36.49475 24.171143 -58.392883 24.163849l-106.50391 -0.035491943c-7.9345703E-4 0 -0.0014038086 -6.1035156E-4 -0.0014038086 -0.001373291l0.06439209 -165.13248l0 0c0 -7.4768066E-4 6.1035156E-4 -0.001373291 0.0013427734 -0.001373291l106.50256 0.036865234l0 0c45.600464 0.015197754 82.55286 36.993973 82.53546 82.59444z" fill-rule="evenodd"/><path stroke="#073763" stroke-width="4.0" stroke-linejoin="round" stroke-linecap="butt" stroke-dasharray="16.0,12.0" d="m884.3803 219.47151l0 0l0 0c-0.008361816 21.898117 -8.715332 42.89644 -24.205566 58.375565c-15.490234 15.4791565 -36.49475 24.171143 -58.392883 24.163849l-106.50391 -0.035491943c-7.9345703E-4 0 -0.0014038086 -6.1035156E-4 -0.0014038086 -0.001373291l0.06439209 -165.13248l0 0c0 -7.4768066E-4 6.1035156E-4 -0.001373291 0.0013427734 -0.001373291l106.50256 0.036865234l0 0c45.600464 0.015197754 82.55286 36.993973 82.53546 82.59444z" fill-rule="evenodd"/><path fill="#cfe2f3" d="m270.6199 79.45559l418.85056 0c1.6894531 0 3.3096924 0.6711197 4.5042725 1.8657227c1.1945801 1.1946106 1.8657227 2.8148422 1.8657227 4.5042725l0 273.63c0 0.0019836426 -0.0015869141 0.0035705566 -0.0036010742 0.0035705566l-431.58694 -0.0035705566l0 0c-0.0019836426 0 -0.0036010742 -0.0016174316 -0.0036010742 -0.0036010742l0.0036010742 -273.6264l0 0c0 -3.5180511 2.8519592 -6.369995 6.369995 -6.369995z" fill-rule="evenodd"/><path stroke="#0b5394" stroke-width="4.0" stroke-linejoin="round" stroke-linecap="butt" d="m270.6199 79.45559l418.85056 0c1.6894531 0 3.3096924 0.6711197 4.5042725 1.8657227c1.1945801 1.1946106 1.8657227 2.8148422 1.8657227 4.5042725l0 273.63c0 0.0019836426 -0.0015869141 0.0035705566 -0.0036010742 0.0035705566l-431.58694 -0.0035705566l0 0c-0.0019836426 0 -0.0036010742 -0.0016174316 -0.0036010742 -0.0036010742l0.0036010742 -273.6264l0 0c0 -3.5180511 2.8519592 -6.369995 6.369995 -6.369995z" fill-rule="evenodd"/><path fill="#cfe2f3" d="m220.84566 401.46176l44.071396 -42.04724l430.09344 0l44.07135 42.04724z" fill-rule="evenodd"/><path stroke="#0b5394" stroke-width="4.0" stroke-linejoin="round" stroke-linecap="butt" d="m220.84566 401.46176l44.071396 -42.04724l430.09344 0l44.07135 42.04724z" fill-rule="evenodd"/><path fill="#cfe2f3" d="m717.23895 445.27908l-474.6772 -0.086517334c-5.8055267 -0.0010681152 -11.373276 -2.308319 -15.478394 -6.4141846c-4.105133 -4.1058655 -6.4113617 -9.674042 -6.4113617 -15.479584l0 -21.88974c0 -0.002380371 0.0019226074 -0.004333496 0.0043182373 -0.004333496l518.4524 0.09881592l0 0c0.002380371 0 0.004272461 0.0019226074 0.004272461 0.0043029785l-0.004272461 21.885468l0 0c0 12.089386 -9.800415 21.88797 -21.88977 21.885773z" fill-rule="evenodd"/><path stroke="#0b5394" stroke-width="4.0" stroke-linejoin="round" stroke-linecap="butt" d="m717.23895 445.27908l-474.6772 -0.086517334c-5.8055267 -0.0010681152 -11.373276 -2.308319 -15.478394 -6.4141846c-4.105133 -4.1058655 -6.4113617 -9.674042 -6.4113617 -15.479584l0 -21.88974c0 -0.002380371 0.0019226074 -0.004333496 0.0043182373 -0.004333496l518.4524 0.09881592l0 0c0.002380371 0 0.004272461 0.0019226074 0.004272461 0.0043029785l-0.004272461 21.885468l0 0c0 12.089386 -9.800415 21.88797 -21.88977 21.885773z" fill-rule="evenodd"/><path fill="#000000" fill-opacity="0.0" d="m289.82227 102.45092l380.4724 0l0 233.95276l-380.4724 0z" fill-rule="evenodd"/><path stroke="#073763" stroke-width="4.0" stroke-linejoin="round" stroke-linecap="butt" d="m289.82227 102.45092l380.4724 0l0 233.95276l-380.4724 0z" fill-rule="evenodd"/><path fill="#000000" fill-opacity="0.0" d="m515.3036 204.42915l-114.456726 86.55119" fill-rule="evenodd"/><path stroke="#0b5394" stroke-width="4.0" stroke-linejoin="round" stroke-linecap="butt" d="m515.3036 204.42915l-114.456726 86.55119" fill-rule="evenodd"/><path fill="#000000" fill-opacity="0.0" d="m424.16223 244.91446l-69.7323 52.22046" fill-rule="evenodd"/><path stroke="#0b5394" stroke-width="4.0" stroke-linejoin="round" stroke-linecap="butt" d="m424.16223 244.91446l-69.7323 52.22046" fill-rule="evenodd"/><path fill="#073763" d="m511.53784 557.23425l-31.480316 54.551147l-31.480316 -54.614136z" fill-rule="evenodd"/><path fill="#000000" fill-opacity="0.0" d="m67.64826 95.5172l22.078697 7.1825104l0 -23.243088l0 23.243088l22.07869 -7.1825104l-22.07869 7.1825104l13.645378 18.804047l-13.645378 -18.804047l-13.645386 18.804047l13.645386 -18.804047z" fill-rule="evenodd"/><path stroke="#0b5394" stroke-width="4.0" stroke-linejoin="round" stroke-linecap="butt" d="m67.64826 95.5172l22.078697 7.1825104l0 -23.243088l0 23.243088l22.07869 -7.1825104l-22.07869 7.1825104l13.645378 18.804047l-13.645378 -18.804047l-13.645386 18.804047l13.645386 -18.804047z" fill-rule="evenodd"/><path fill="#000000" fill-opacity="0.0" d="m807.0693 487.17297l23.184326 1.223877l-6.024048 -22.459595l6.024048 22.459595l19.461304 -12.656921l-19.461304 12.656921l18.051819 14.637207l-18.051819 -14.637207l-8.304626 21.703217l8.304626 -21.703217z" fill-rule="evenodd"/><path stroke="#0b5394" stroke-width="4.0" stroke-linejoin="round" stroke-linecap="butt" d="m807.0693 487.17297l23.184326 1.223877l-6.024048 -22.459595l6.024048 22.459595l19.461304 -12.656921l-19.461304 12.656921l18.051819 14.637207l-18.051819 -14.637207l-8.304626 21.703217l8.304626 -21.703217z" fill-rule="evenodd"/><path fill="#000000" fill-opacity="0.0" d="m170.58202 464.1018l237.03938 0" fill-rule="evenodd"/><path stroke="#073763" stroke-width="4.0" stroke-linejoin="round" stroke-linecap="butt" stroke-dasharray="16.0,12.0" d="m170.58202 464.1018l237.03938 0" fill-rule="evenodd"/><path fill="#000000" fill-opacity="0.0" d="m399.83038 464.15802l0 0c21.25528 -0.29968262 41.73462 7.978363 56.81134 22.96402c15.076721 14.985626 23.478699 35.41446 23.30783 56.671173l-79.00534 -0.6351929z" fill-rule="evenodd"/><path fill="#000000" fill-opacity="0.0" d="m399.83038 464.15802l0 0c21.25528 -0.29968262 41.73462 7.978363 56.81134 22.96402c15.076721 14.985626 23.478699 35.41446 23.30783 56.671173" fill-rule="evenodd"/><path stroke="#073763" stroke-width="4.0" stroke-linejoin="round" stroke-linecap="butt" stroke-dasharray="16.0,12.0" d="m399.83038 464.15802l0 0c21.25528 -0.29968262 41.73462 7.978363 56.81134 22.96402c15.076721 14.985626 23.478699 35.41446 23.30783 56.671173" fill-rule="evenodd"/></g></svg>